<svg xmlns="http://www.w3.org/2000/svg" version="1.1" xmlns:xlink="http://www.w3.org/1999/xlink" xmlns:svgjs="http://svgjs.com/svgjs" width="100" height="100" overflow="visible">
	<g class="paper-bag-logo" opacity="1">
		<g id="SvgjsG1008" transform="scale(0.9590935149900516)" opacity="1">
			<g id="SvgjsG1009" class="CPW35lwmw" transform="translate(0, 0) scale(0.34439461097900637)" light-content="false" non-strokable="false" fill="#bc30f3">
				<path d="M219.6 48.1c-22.9-22.9-53.4-35.5-85.8-35.5S71 25.2 48.1 48.1s-35.5 53.4-35.5 85.8 12.6 62.9 35.5 85.8 53.4 35.5 85.8 35.5 62.9-12.6 85.8-35.5 35.5-53.4 35.5-85.8-12.7-62.9-35.6-85.8z">
				</path>
			</g>
			<g id="SvgjsG1010" class="lYBvkqS5gW" transform="translate(21.940123710210354, 21.529745723076925) scale(0.49265053652631924)" fill="#ffffff">
				<path d="M78.976 7.229L69.42 0l-9.716 7.229L50.448 0 40.407 7.229 30.15 0l-9.661 7.229L10 0v92.437l10.679 7.229 9.119-7.229 10.984 7.229 9.642-7.229 9.641 7.229 8.695-7.229 9.519 7.229L88 92.437V0l-9.024 7.229zM45 79H21v-4h24v4zm0-14H21v-4h24v4zm0-13H21v-4h24v4zm29.622 21.679c-.518 1.16-1.222 2.123-2.115 2.889-.894.768-1.941 1.356-3.141 1.76-1.2.405-2.499.634-3.895.691v3.267H63.67v-3.267c-1.509-.028-2.89-.266-4.145-.713-1.258-.446-2.334-1.08-3.226-1.904-.895-.823-1.586-1.836-2.074-3.037-.487-1.201-.718-2.582-.69-4.145h4.775c-.028 1.843.376 3.295 1.215 4.354.837 1.062 2.218 1.62 4.145 1.677V65.114a34.778 34.778 0 0 1-3.413-1.11A12.38 12.38 0 0 1 57.2 62.33a7.821 7.821 0 0 1-2.198-2.575c-.56-1.033-.839-2.317-.839-3.854 0-1.341.259-2.521.774-3.538a7.498 7.498 0 0 1 2.095-2.556 9.66 9.66 0 0 1 3.037-1.57 11.842 11.842 0 0 1 3.601-.544v-3.267h1.801v3.267c1.257 0 2.443.167 3.56.502 1.116.335 2.086.838 2.911 1.507.823.67 1.479 1.523 1.968 2.555.487 1.033.731 2.233.731 3.603h-4.772c-.057-1.425-.426-2.514-1.109-3.269-.684-.752-1.781-1.131-3.288-1.131v8.837a40.88 40.88 0 0 1 3.687 1.174c1.198.446 2.261 1.02 3.182 1.715a8.03 8.03 0 0 1 2.221 2.599c.558 1.032.837 2.303.837 3.81-.002 1.566-.262 2.926-.777 4.084zM77 38H21v-4h56v4zm0-14H21v-4h56v4z">
				</path>
			</g>
		</g>
	</g>
</svg>
