<svg xmlns="http://www.w3.org/2000/svg" version="1.1" xmlns:xlink="http://www.w3.org/1999/xlink" xmlns:svgjs="http://svgjs.com/svgjs" width="591" height="93" overflow="visible">
	<g class="paper-bag-logo" opacity="1">
		<g id="SvgjsG1008" transform="scale(0.9590935149900516)" opacity="1">
			<g id="SvgjsG1009" class="CPW35lwmw" transform="translate(0, 0) scale(0.34439461097900637)" light-content="false" non-strokable="false" fill="#bc30f3">
				<path d="M219.6 48.1c-22.9-22.9-53.4-35.5-85.8-35.5S71 25.2 48.1 48.1s-35.5 53.4-35.5 85.8 12.6 62.9 35.5 85.8 53.4 35.5 85.8 35.5 62.9-12.6 85.8-35.5 35.5-53.4 35.5-85.8-12.7-62.9-35.6-85.8z">
				</path>
				<path d="M133.8 0C59.9 0 0 59.9 0 133.8s59.9 133.8 133.8 133.8 133.8-59.9 133.8-133.8S207.8 0 133.8 0zm0 260.1c-69.7 0-126.3-56.5-126.3-126.3S64.1 7.6 133.8 7.6s126.3 56.5 126.3 126.3-56.5 126.2-126.3 126.2z">
				</path>
			</g>
			<g id="SvgjsG1010" class="lYBvkqS5gW" transform="translate(21.940123710210354, 21.529745723076925) scale(0.49265053652631924)" fill="#ffffff">
				<path d="M78.976 7.229L69.42 0l-9.716 7.229L50.448 0 40.407 7.229 30.15 0l-9.661 7.229L10 0v92.437l10.679 7.229 9.119-7.229 10.984 7.229 9.642-7.229 9.641 7.229 8.695-7.229 9.519 7.229L88 92.437V0l-9.024 7.229zM45 79H21v-4h24v4zm0-14H21v-4h24v4zm0-13H21v-4h24v4zm29.622 21.679c-.518 1.16-1.222 2.123-2.115 2.889-.894.768-1.941 1.356-3.141 1.76-1.2.405-2.499.634-3.895.691v3.267H63.67v-3.267c-1.509-.028-2.89-.266-4.145-.713-1.258-.446-2.334-1.08-3.226-1.904-.895-.823-1.586-1.836-2.074-3.037-.487-1.201-.718-2.582-.69-4.145h4.775c-.028 1.843.376 3.295 1.215 4.354.837 1.062 2.218 1.62 4.145 1.677V65.114a34.778 34.778 0 0 1-3.413-1.11A12.38 12.38 0 0 1 57.2 62.33a7.821 7.821 0 0 1-2.198-2.575c-.56-1.033-.839-2.317-.839-3.854 0-1.341.259-2.521.774-3.538a7.498 7.498 0 0 1 2.095-2.556 9.66 9.66 0 0 1 3.037-1.57 11.842 11.842 0 0 1 3.601-.544v-3.267h1.801v3.267c1.257 0 2.443.167 3.56.502 1.116.335 2.086.838 2.911 1.507.823.67 1.479 1.523 1.968 2.555.487 1.033.731 2.233.731 3.603h-4.772c-.057-1.425-.426-2.514-1.109-3.269-.684-.752-1.781-1.131-3.288-1.131v8.837a40.88 40.88 0 0 1 3.687 1.174c1.198.446 2.261 1.02 3.182 1.715a8.03 8.03 0 0 1 2.221 2.599c.558 1.032.837 2.303.837 3.81-.002 1.566-.262 2.926-.777 4.084zM77 38H21v-4h56v4zm0-14H21v-4h56v4z">
				</path>
				<path d="M58.938 55.565c0 .67.14 1.243.419 1.718.279.476.635.879 1.068 1.214a5.51 5.51 0 0 0 1.508.816c.57.21 1.15.385 1.737.524V51.46c-1.509 0-2.673.314-3.497.943s-1.235 1.683-1.235 3.162zm10.074 11.392a6.568 6.568 0 0 0-1.655-.88 20.394 20.394 0 0 0-1.885-.584v9.757c1.507-.111 2.743-.553 3.707-1.319.962-.769 1.442-1.99 1.442-3.665 0-.78-.146-1.437-.439-1.969a4.145 4.145 0 0 0-1.17-1.34z">
				</path>
			</g>
			<g id="SvgjsG1011" class="text" transform="translate(360.4399987792969, 64.67999923706054) " fill="#474747">
				<path d="M-207.6 -0.63C-206.6 -0.01 -205.18 0.3 -203.34 0.3C-201.02 0.3 -199.3 0.12 -198.18 -0.24L-198.18 -5.28L-200.58 -5.82L-204.18 -10.74C-205.06 -11.86 -205.93 -12.73 -206.79 -13.35C-207.65 -13.97 -208.68 -14.44 -209.88 -14.76L-209.88 -15.3C-207.36 -16.5 -205.43 -18.05 -204.09 -19.95C-202.75 -21.85 -202.08 -24.06 -202.08 -26.58C-202.08 -30.34 -203.43 -33.15 -206.13 -35.01C-208.83 -36.87 -212.66 -37.8 -217.62 -37.8C-222.46 -37.8 -226.68 -37.2 -230.28 -36L-230.28 0L-221.34 0L-221.34 -13.32L-219.18 -13.32C-217.94 -13.28 -216.96 -13.07 -216.24 -12.69C-215.52 -12.31 -214.98 -11.88 -214.62 -11.4C-214.26 -10.92 -213.78 -10.14 -213.18 -9.06L-210.12 -3.48C-209.44 -2.2 -208.6 -1.25 -207.6 -0.63ZM-213.18 -20.58L-221.34 -20.58L-221.34 -29.58C-220.22 -29.82 -218.98 -29.94 -217.62 -29.94C-215.3 -29.94 -213.61 -29.61 -212.55 -28.95C-211.49 -28.29 -210.96 -27.14 -210.96 -25.5C-210.96 -23.3 -211.7 -21.66 -213.18 -20.58Z M-183.03 -1.11C-180.29 0.03 -176.4 0.6 -171.36 0.6C-166.52 0.6 -162.38 0.16 -158.94 -0.72L-160.08 -8.76C-163.36 -8 -167.02 -7.62 -171.06 -7.62C-173.74 -7.62 -176.1 -7.82 -178.14 -8.22L-178.14 -14.46L-162.3 -14.46L-162.3 -22.32L-178.14 -22.32L-178.14 -28.98L-159.24 -28.98L-159.24 -37.2L-187.14 -37.2L-187.14 -7.26C-187.14 -4.3 -185.77 -2.25 -183.03 -1.11Z M-142.83 -3.93C-139.69 -0.91 -135.14 0.6 -129.18 0.6C-125.9 0.6 -123.1 0.25 -120.78 -0.45C-118.46 -1.15 -116.34 -2.2 -114.42 -3.6L-117.9 -10.62C-119.42 -9.7 -121.03 -8.99 -122.73 -8.49C-124.43 -7.99 -126.38 -7.74 -128.58 -7.74C-132.18 -7.74 -134.74 -8.54 -136.26 -10.14C-137.78 -11.74 -138.54 -14.3 -138.54 -17.82C-138.54 -21.78 -138.06 -25.42 -137.1 -28.74C-134.9 -29.22 -132.7 -29.46 -130.5 -29.46C-128.54 -29.46 -126.9 -29.3 -125.58 -28.98L-124.98 -24.54L-117.54 -24.54C-117.3 -25.42 -117.11 -26.62 -116.97 -28.14C-116.83 -29.66 -116.76 -31.1 -116.76 -32.46L-116.76 -34.98C-120.36 -36.86 -124.66 -37.8 -129.66 -37.8C-135.58 -37.8 -140.04 -35.96 -143.04 -32.28C-146.04 -28.6 -147.54 -23.66 -147.54 -17.46C-147.54 -11.46 -145.97 -6.95 -142.83 -3.93Z M-102.42 -37.2L-102.42 0L-93.42 0L-93.42 -37.2Z M-79.44 -35.64L-79.44 0L-65.88 0C-60.12 0 -56.04 -0.85 -53.64 -2.55C-51.24 -4.25 -50.04 -6.88 -50.04 -10.44C-50.04 -12.6 -50.61 -14.34 -51.75 -15.66C-52.89 -16.98 -54.7 -17.96 -57.18 -18.6L-57.18 -18.96C-55.3 -19.88 -53.94 -20.96 -53.1 -22.2C-52.26 -23.44 -51.84 -25 -51.84 -26.88C-51.84 -30.48 -53.17 -33.16 -55.83 -34.92C-58.49 -36.68 -62.32 -37.56 -67.32 -37.56C-71.8 -37.56 -75.84 -36.92 -79.44 -35.64ZM-61.98 -22.14L-70.5 -22.14L-70.5 -29.58C-69.5 -29.86 -68.4 -30 -67.2 -30C-64.84 -30 -63.18 -29.7 -62.22 -29.1C-61.26 -28.5 -60.78 -27.4 -60.78 -25.8C-60.78 -25.04 -60.87 -24.4 -61.05 -23.88C-61.23 -23.36 -61.54 -22.78 -61.98 -22.14ZM-64.92 -7.56L-70.5 -7.56L-70.5 -14.7L-64.32 -14.7C-62.4 -14.7 -61.03 -14.43 -60.21 -13.89C-59.39 -13.35 -58.98 -12.44 -58.98 -11.16C-58.98 -9.92 -59.42 -9.01 -60.3 -8.43C-61.18 -7.85 -62.72 -7.56 -64.92 -7.56Z M-35.31 -4.17C-32.57 -1.03 -28.44 0.54 -22.92 0.54C-17 0.54 -12.46 -1.13 -9.3 -4.47C-6.14 -7.81 -4.56 -12.74 -4.56 -19.26C-4.56 -25.34 -5.93 -29.95 -8.67 -33.09C-11.41 -36.23 -15.54 -37.8 -21.06 -37.8C-26.98 -37.8 -31.52 -36.13 -34.68 -32.79C-37.84 -29.45 -39.42 -24.52 -39.42 -18C-39.42 -11.92 -38.05 -7.31 -35.31 -4.17ZM-15.12 -8.82C-16.92 -8.1 -19.1 -7.74 -21.66 -7.74C-24.06 -7.74 -25.91 -8.15 -27.21 -8.97C-28.51 -9.79 -29.39 -11 -29.85 -12.6C-30.31 -14.2 -30.54 -16.3 -30.54 -18.9C-30.54 -20.86 -30.41 -22.57 -30.15 -24.03C-29.89 -25.49 -29.46 -26.96 -28.86 -28.44C-27.06 -29.16 -24.88 -29.52 -22.32 -29.52C-19.92 -29.52 -18.07 -29.11 -16.77 -28.29C-15.47 -27.47 -14.59 -26.26 -14.13 -24.66C-13.67 -23.06 -13.44 -20.96 -13.44 -18.36C-13.44 -16.48 -13.57 -14.79 -13.83 -13.29C-14.09 -11.79 -14.52 -10.3 -15.12 -8.82Z M54.54 -0.63C55.54 -0.01 56.96 0.3 58.8 0.3C61.12 0.3 62.84 0.12 63.96 -0.24L63.96 -5.28L61.56 -5.82L57.96 -10.74C57.08 -11.86 56.21 -12.73 55.35 -13.35C54.49 -13.97 53.46 -14.44 52.26 -14.76L52.26 -15.3C54.78 -16.5 56.71 -18.05 58.05 -19.95C59.39 -21.85 60.06 -24.06 60.06 -26.58C60.06 -30.34 58.71 -33.15 56.01 -35.01C53.31 -36.87 49.48 -37.8 44.52 -37.8C39.68 -37.8 35.46 -37.2 31.86 -36L31.86 0L40.8 0L40.8 -13.32L42.96 -13.32C44.2 -13.28 45.18 -13.07 45.9 -12.69C46.62 -12.31 47.16 -11.88 47.52 -11.4C47.88 -10.92 48.36 -10.14 48.96 -9.06L52.02 -3.48C52.7 -2.2 53.54 -1.25 54.54 -0.63ZM48.96 -20.58L40.8 -20.58L40.8 -29.58C41.92 -29.82 43.16 -29.94 44.52 -29.94C46.84 -29.94 48.53 -29.61 49.59 -28.95C50.65 -28.29 51.18 -27.14 51.18 -25.5C51.18 -23.3 50.44 -21.66 48.96 -20.58Z M79.11 -1.11C81.85 0.03 85.74 0.6 90.78 0.6C95.62 0.6 99.76 0.16 103.2 -0.72L102.06 -8.76C98.78 -8 95.12 -7.62 91.08 -7.62C88.4 -7.62 86.04 -7.82 84 -8.22L84 -14.46L99.84 -14.46L99.84 -22.32L84 -22.32L84 -28.98L102.9 -28.98L102.9 -37.2L75 -37.2L75 -7.26C75 -4.3 76.37 -2.25 79.11 -1.11Z M113.46 -0.54L122.82 0C123.26 -2 124.1 -5.36 125.34 -10.08L137.64 -10.08C138.68 -5.6 139.52 -2.24 140.16 0L149.52 -0.54C147.88 -6.78 146.03 -13.17 143.97 -19.71C141.91 -26.25 139.88 -32.08 137.88 -37.2L125.1 -37.2C123.1 -32.08 121.07 -26.25 119.01 -19.71C116.95 -13.17 115.1 -6.78 113.46 -0.54ZM135.42 -18.06L127.5 -18.06C128.66 -22.1 129.84 -25.78 131.04 -29.1L131.94 -29.1C133.22 -25.34 134.38 -21.66 135.42 -18.06Z M161.97 -3.93C165.11 -0.91 169.66 0.6 175.62 0.6C178.9 0.6 181.7 0.25 184.02 -0.45C186.34 -1.15 188.46 -2.2 190.38 -3.6L186.9 -10.62C185.38 -9.7 183.77 -8.99 182.07 -8.49C180.37 -7.99 178.42 -7.74 176.22 -7.74C172.62 -7.74 170.06 -8.54 168.54 -10.14C167.02 -11.74 166.26 -14.3 166.26 -17.82C166.26 -21.78 166.74 -25.42 167.7 -28.74C169.9 -29.22 172.1 -29.46 174.3 -29.46C176.26 -29.46 177.9 -29.3 179.22 -28.98L179.82 -24.54L187.26 -24.54C187.5 -25.42 187.69 -26.62 187.83 -28.14C187.97 -29.66 188.04 -31.1 188.04 -32.46L188.04 -34.98C184.44 -36.86 180.14 -37.8 175.14 -37.8C169.22 -37.8 164.76 -35.96 161.76 -32.28C158.76 -28.6 157.26 -23.66 157.26 -17.46C157.26 -11.46 158.83 -6.95 161.97 -3.93Z M211.74 -28.8L211.74 0L220.74 0L220.74 -28.8L232.62 -28.8L232.62 -37.2L199.86 -37.2L199.86 -28.8Z">
				</path>
			</g>
		</g>
	</g>
</svg>
